<svg width="21" height="22" fill="none" xmlns="http://www.w3.org/2000/svg"><path d="M18.841 6.343c.014.186.014.373.014.56 0 5.69-4.33 12.245-12.246 12.245-2.438 0-4.704-.706-6.609-1.932.346.04.68.053 1.04.053a8.62 8.62 0 0 0 5.343-1.838 4.312 4.312 0 0 1-4.025-2.985c.267.04.533.066.813.066.387 0 .773-.053 1.133-.146A4.305 4.305 0 0 1 .853 8.142v-.054c.573.32 1.239.52 1.945.547A4.3 4.3 0 0 1 .88 5.05c0-.8.214-1.532.587-2.172a12.234 12.234 0 0 0 8.874 4.504 4.86 4.86 0 0 1-.107-.986 4.302 4.302 0 0 1 4.304-4.304c1.24 0 2.359.52 3.145 1.36a8.473 8.473 0 0 0 2.732-1.04c-.32 1-1 1.839-1.893 2.372A8.628 8.628 0 0 0 21 4.118a9.251 9.251 0 0 1-2.159 2.225z" fill="#3EA1D1"/></svg>